<svg width="94" height="27" viewBox="0 0 94 27" fill="none" xmlns="http://www.w3.org/2000/svg">
<path d="M0 0.258275C0 0.115634 0.118217 0 0.264045 0H27.3391C27.485 0 27.6032 0.115634 27.6032 0.258275V10.5052C27.6032 10.6479 27.485 10.7635 27.3391 10.7635H0.264044C0.118216 10.7635 0 10.6479 0 10.5052V0.258275Z" fill="#F30920"/>
<path d="M66.3968 0.258275C66.3968 0.115634 66.515 0 66.6609 0H93.736C93.8818 0 94 0.115634 94 0.258275V10.5052C94 10.6479 93.8818 10.7635 93.736 10.7635H66.6609C66.515 10.7635 66.3968 10.6479 66.3968 10.5052V0.258275Z" fill="#F30920"/>
<path d="M0.264045 16.2365C0.118217 16.2365 0 16.3521 0 16.4948V26.7417C0 26.8844 0.118216 27 0.264044 27H27.3391C27.485 27 27.6032 26.8844 27.6032 26.7417V16.4948C27.6032 16.3521 27.485 16.2365 27.3391 16.2365H0.264045Z" fill="#F30920"/>
<path d="M33.4625 27C33.3166 27 33.1984 26.8844 33.1984 26.7417V0.258276C33.1984 0.115635 33.3166 1.96543e-06 33.4625 1.95919e-06L43.9383 1.51128e-06C44.0842 1.50505e-06 44.2024 0.115635 44.2024 0.258277L44.2024 26.7417C44.2024 26.8844 44.0842 27 43.9383 27H33.4625Z" fill="#F30920"/>
<path d="M75.0537 16.2365C74.9079 16.2365 74.7897 16.3521 74.7897 16.4948V26.6809C74.7897 26.8236 74.9079 26.9392 75.0537 26.9392H85.4674C85.6133 26.9392 85.7315 26.8236 85.7315 26.6809V16.4948C85.7315 16.3521 85.6133 16.2365 85.4674 16.2365H75.0537Z" fill="#F30920"/>
<path d="M50.0617 26.9392C49.9158 26.9392 49.7976 26.8236 49.7976 26.681V16.4948C49.7976 16.3522 49.9158 16.2365 50.0617 16.2365H60.4754C60.6212 16.2365 60.7394 16.3522 60.7394 16.4948V26.681C60.7394 26.8236 60.6212 26.9392 60.4754 26.9392H50.0617Z" fill="#F30920"/>
<path d="M49.875 10.6574C49.9523 10.733 50.0768 10.733 50.3257 10.733H60.2113C60.4603 10.733 60.5847 10.733 60.6621 10.6574C60.7394 10.5818 60.7394 10.46 60.7394 10.2165V0.546895C60.7394 0.303391 60.7394 0.181639 60.6621 0.105992C60.5847 0.030345 60.4603 0.030345 60.2113 0.030345L50.3257 0.0303454C50.0768 0.0303454 49.9523 0.0303454 49.875 0.105992C49.7976 0.18164 49.7976 0.303391 49.7976 0.546895V10.2165C49.7976 10.46 49.7976 10.5818 49.875 10.6574Z" fill="#F30920"/>
</svg>
